<svg width="22" height="16" viewBox="0 0 22 16" fill="none" xmlns="http://www.w3.org/2000/svg">
<path fill-rule="evenodd" clip-rule="evenodd" d="M21 11.236V14C21 14.552 20.552 15 20 15H2C1.448 15 1 14.552 1 14V11.236C1 11.091 1.082 10.959 1.211 10.894C2.308 10.346 3 9.226 3 8C3 6.774 2.307 5.654 1.211 5.106C1.082 5.041 1 4.909 1 4.764V2C1 1.448 1.448 1 2 1H20C20.552 1 21 1.448 21 2V4.764C21 4.909 20.918 5.041 20.789 5.106L20.745 5.129C19.673 5.685 19 6.792 19 8C19 9.225 19.692 10.346 20.788 10.894H20.789C20.918 10.959 21 11.091 21 11.236Z" fill="#FFB800"/>
<path fill-rule="evenodd" clip-rule="evenodd" d="M2 1.75C1.86221 1.75 1.75 1.86221 1.75 2V4.54443C2.98154 5.25186 3.75 6.56707 3.75 8C3.75 9.4326 2.98269 10.7481 1.75 11.4557V14C1.75 14.1378 1.86221 14.25 2 14.25H20C20.1378 14.25 20.25 14.1378 20.25 14V11.4561C19.0176 10.7485 18.25 9.43186 18.25 8C18.25 6.56896 19.0167 5.25292 20.25 4.54496V2C20.25 1.86221 20.1378 1.75 20 1.75H2ZM0.875834 10.2231C1.71846 9.80213 2.25 8.94199 2.25 8C2.25 7.05834 1.71773 6.19789 0.87559 5.77682L0.873515 5.77578C0.493277 5.58419 0.25 5.19415 0.25 4.764V2C0.25 1.03379 1.03379 0.25 2 0.25H20C20.9662 0.25 21.75 1.03379 21.75 2V4.764C21.75 5.19178 21.5094 5.57988 21.1328 5.77259L21.0925 5.79366L21.0903 5.79478C20.2669 6.22183 19.75 7.07208 19.75 8C19.75 8.93387 20.2735 9.78891 21.1038 10.2132C21.1114 10.2168 21.119 10.2204 21.1265 10.2242C21.5067 10.4158 21.75 10.8058 21.75 11.236V14C21.75 14.9662 20.9662 15.75 20 15.75H2C1.03379 15.75 0.25 14.9662 0.25 14V11.236C0.25 10.8058 0.493277 10.4158 0.873515 10.2242L0.875834 10.2231Z" fill="#323232"/>
<path fill-rule="evenodd" clip-rule="evenodd" d="M13.9603 5.03968C14.2532 5.33257 14.2532 5.80744 13.9603 6.10034L8.96026 11.1003C8.66737 11.3932 8.19249 11.3932 7.8996 11.1003C7.60671 10.8074 7.60671 10.3326 7.8996 10.0397L12.8996 5.03968C13.1925 4.74678 13.6674 4.74678 13.9603 5.03968Z" fill="#323232"/>
<circle cx="8.5" cy="5.5" r="1" fill="#323232"/>
<circle cx="13.5" cy="10.5" r="1" fill="#323232"/>
</svg>
