<svg width="24" height="24" viewBox="0 0 24 24" fill="none" xmlns="http://www.w3.org/2000/svg">
<path fill-rule="evenodd" clip-rule="evenodd" d="M9.9988 3.77147C10.3032 3.70379 10.6219 3.77794 10.8651 3.97307C11.1084 4.16817 11.2499 4.46317 11.2499 4.77507V19.2241C11.25 19.5362 11.1084 19.8314 10.865 20.0267C10.6215 20.222 10.3024 20.2962 9.99778 20.2284L5.55171 19.24C5.08132 19.1355 4.74658 18.7183 4.74658 18.2364V5.76349C4.74658 5.28147 5.08229 4.86405 5.55293 4.75989L9.9988 3.77147ZM12.7499 4.77507C12.7499 4.00827 12.4019 3.28284 11.8037 2.80298C11.2055 2.32315 10.4218 2.14079 9.67323 2.30723L5.22771 3.29557C4.07037 3.5519 3.24658 4.57806 3.24658 5.76349V18.2364C3.24658 19.4214 4.06969 20.4475 5.22662 20.7043L9.67211 21.6926C10.421 21.8593 11.2051 21.6769 11.8036 21.1968C12.402 20.7167 12.7501 19.9907 12.7499 19.2236V4.77507ZM9.74866 11.0195C9.74866 10.6053 9.41287 10.2695 8.99866 10.2695C8.58444 10.2695 8.24866 10.6053 8.24866 11.0195V13.0204C8.24866 13.4346 8.58444 13.7704 8.99866 13.7704C9.41287 13.7704 9.74866 13.4346 9.74866 13.0204V11.0195ZM18.0025 3.20459C18.7321 3.20444 19.4319 3.49421 19.9478 4.01013C20.4637 4.52604 20.7535 5.22582 20.7533 5.95542V7.99827C20.7533 8.41249 20.4175 8.74827 20.0033 8.74827C19.5891 8.74827 19.2533 8.41249 19.2533 7.99827V5.95542C19.2534 5.62371 19.1217 5.30535 18.8871 5.07079C18.6525 4.83623 18.3344 4.7045 18.0027 4.70459H15.0012C14.587 4.70459 14.2512 4.3688 14.2512 3.95459C14.2512 3.54038 14.587 3.20459 15.0012 3.20459H18.0025ZM20.7533 16.0016C20.7533 15.5874 20.4175 15.2516 20.0033 15.2516C19.5891 15.2516 19.2533 15.5874 19.2533 16.0016V18.0026C19.2534 18.3343 19.1217 18.6525 18.8871 18.8871C18.6525 19.1216 18.3342 19.2533 18.0025 19.2533H15.0012C14.587 19.2533 14.2512 19.589 14.2512 20.0033C14.2512 20.4175 14.587 20.7533 15.0012 20.7533H18.0025C18.7321 20.7534 19.4319 20.4636 19.9478 19.9477C20.4637 19.4318 20.7535 18.7318 20.7533 18.0022V16.0016ZM14.2512 12C14.2512 11.5858 14.587 11.25 15.0012 11.25H18.1926L17.4721 10.5295C17.1792 10.2366 17.1792 9.76171 17.4721 9.46882C17.765 9.17592 18.2399 9.17592 18.5328 9.46882L20.5317 11.4678C20.5384 11.4744 20.545 11.4812 20.5514 11.4881C20.6092 11.5499 20.6547 11.6192 20.6876 11.6926C20.7298 11.7864 20.7533 11.8905 20.7533 12C20.7533 12.1187 20.7257 12.231 20.6766 12.3308C20.6523 12.3802 20.6222 12.4275 20.5864 12.4717C20.5683 12.4941 20.549 12.5153 20.5285 12.5355L18.5328 14.5311C18.2399 14.824 17.765 14.824 17.4721 14.5311C17.1792 14.2382 17.1792 13.7634 17.4721 13.4705L18.1926 12.75H15.0012C14.587 12.75 14.2512 12.4142 14.2512 12Z" fill="black"/>
</svg>
