<svg width="24" height="24" viewBox="0 0 24 24" fill="none" xmlns="http://www.w3.org/2000/svg">
<path fill-rule="evenodd" clip-rule="evenodd" d="M6 5.25C3.92893 5.25 2.25 6.92893 2.25 9V16C2.25 18.0711 3.92893 19.75 6 19.75H13C15.0542 19.75 16.7226 18.0984 16.7497 16.0506L19.0817 17.4881C19.6216 17.8209 20.2993 17.8356 20.8531 17.5264C21.4068 17.2172 21.75 16.6326 21.75 15.9984V9.0016C21.75 8.36735 21.4068 7.78275 20.853 7.47357C20.2993 7.16441 19.6215 7.17909 19.0816 7.51191L16.7497 8.94934C16.7226 6.90162 15.0542 5.25 13 5.25H6ZM15.25 10.2797C15.2498 10.2887 15.2498 10.2977 15.25 10.3067V14.6932C15.2498 14.7023 15.2498 14.7113 15.25 14.7203V16C15.25 17.2426 14.2426 18.25 13 18.25H6C4.75736 18.25 3.75 17.2426 3.75 16V9C3.75 7.75736 4.75736 6.75 6 6.75H13C14.2426 6.75 15.25 7.75736 15.25 9V10.2797ZM16.75 14.2888V10.7112L19.8688 8.78877C19.9459 8.74122 20.0427 8.73912 20.1218 8.78329C20.201 8.82746 20.25 8.91099 20.25 9.0016V15.9984C20.25 16.089 20.201 16.1725 20.1219 16.2167C20.0427 16.2609 19.9459 16.2588 19.8688 16.2112L16.75 14.2888Z" fill="black"/>
</svg>
