<svg width="12" height="14" viewBox="0 0 12 14" fill="none" xmlns="http://www.w3.org/2000/svg">
<path fill-rule="evenodd" clip-rule="evenodd" d="M1.83325 5.66667C1.83325 3.36548 3.69873 1.5 5.99992 1.5C8.30111 1.5 10.1666 3.36548 10.1666 5.66667C10.1666 7.22559 9.1085 8.93866 7.94961 10.3252C7.382 11.0043 6.81299 11.5785 6.38539 11.9832C6.23763 12.1231 6.10714 12.2423 5.99992 12.3382C5.89269 12.2423 5.76221 12.1231 5.61444 11.9832C5.18684 11.5785 4.61783 11.0043 4.05023 10.3252C2.89134 8.93866 1.83325 7.22559 1.83325 5.66667ZM5.68233 13.3862C5.68245 13.3863 5.68255 13.3864 5.99992 13L6.31729 13.3864C6.13283 13.5379 5.86678 13.5377 5.68233 13.3862ZM5.68233 13.3862L5.99992 13C6.31729 13.3864 6.31772 13.386 6.31784 13.3859L6.31882 13.3851L6.32204 13.3824L6.33344 13.373C6.34321 13.3648 6.35728 13.353 6.37536 13.3377C6.41151 13.3071 6.46372 13.2625 6.52969 13.2047C6.6616 13.0893 6.84876 12.9215 7.07278 12.7095C7.52018 12.2861 8.11783 11.6832 8.71689 10.9665C9.89134 9.56135 11.1666 7.60774 11.1666 5.66667C11.1666 2.81319 8.85339 0.5 5.99992 0.5C3.14644 0.5 0.833252 2.81319 0.833252 5.66667C0.833252 7.60774 2.1085 9.56135 3.28294 10.9665C3.882 11.6832 4.47966 12.2861 4.92706 12.7095C5.15108 12.9215 5.33824 13.0893 5.47015 13.2047C5.53612 13.2625 5.58833 13.3071 5.62448 13.3377C5.64256 13.353 5.65662 13.3648 5.6664 13.373L5.6778 13.3824L5.68102 13.3851L5.68233 13.3862ZM4.49992 5.66667C4.49992 4.83814 5.17139 4.16667 5.99992 4.16667C6.82844 4.16667 7.49992 4.83814 7.49992 5.66667C7.49992 6.49519 6.82844 7.16667 5.99992 7.16667C5.17139 7.16667 4.49992 6.49519 4.49992 5.66667ZM5.99992 3.16667C4.61911 3.16667 3.49992 4.28586 3.49992 5.66667C3.49992 7.04748 4.61911 8.16667 5.99992 8.16667C7.38073 8.16667 8.49992 7.04748 8.49992 5.66667C8.49992 4.28586 7.38073 3.16667 5.99992 3.16667Z" fill="black"/>
</svg>
