<svg width="50" height="18" viewBox="0 0 50 18" fill="none" xmlns="http://www.w3.org/2000/svg">
<path d="M0 0H50V14C50 16.2091 48.2091 18 46 18H0V0Z" fill="#FFE600"/>
<path d="M10.23 10.17C10.23 10.5233 10.14 10.84 9.96 11.12C9.78 11.3933 9.53667 11.61 9.23 11.77C8.93 11.9233 8.6 12 8.24 12H4.89V4.9H8.31C8.64333 4.9 8.93 4.99 9.17 5.17C9.41 5.34333 9.59667 5.57 9.73 5.85C9.86333 6.12333 9.93 6.41 9.93 6.71C9.93 7.06333 9.84 7.39 9.66 7.69C9.48 7.99 9.23 8.21333 8.91 8.36C9.31 8.48 9.63 8.70333 9.87 9.03C10.11 9.35667 10.23 9.73667 10.23 10.17ZM5.59 5.51V8.13H8.03C8.26333 8.13 8.47 8.07 8.65 7.95C8.83667 7.82333 8.98 7.66333 9.08 7.47C9.18667 7.27 9.24 7.05333 9.24 6.82C9.24 6.58 9.19 6.36 9.09 6.16C8.99 5.96 8.85333 5.80333 8.68 5.69C8.50667 5.57 8.31 5.51 8.09 5.51H5.59ZM9.53 10.05C9.53 9.81667 9.47667 9.59667 9.37 9.39C9.26333 9.18333 9.11667 9.01667 8.93 8.89C8.75 8.76333 8.54333 8.7 8.31 8.7H5.59V11.39H8.24C8.48 11.39 8.69667 11.3267 8.89 11.2C9.08333 11.0733 9.23667 10.91 9.35 10.71C9.47 10.5033 9.53 10.2833 9.53 10.05ZM11.4002 12V6.79H12.0802V8.63H13.2602C13.8535 8.63 14.3002 8.78333 14.6002 9.09C14.9068 9.39 15.0602 9.78667 15.0602 10.28C15.0602 10.6 14.9935 10.89 14.8602 11.15C14.7268 11.41 14.5302 11.6167 14.2702 11.77C14.0102 11.9233 13.6902 12 13.3102 12H11.4002ZM16.0102 12V6.8H16.6902V12H16.0102ZM12.0802 11.46H13.2202C13.6268 11.46 13.9202 11.3433 14.1002 11.11C14.2802 10.87 14.3702 10.5967 14.3702 10.29C14.3702 10.09 14.3335 9.90667 14.2602 9.74C14.1935 9.56667 14.0735 9.43 13.9002 9.33C13.7335 9.22333 13.5002 9.17 13.2002 9.17H12.0802V11.46ZM18.1775 12V6.79H21.2875V7.4H18.8575V12H18.1775ZM24.4602 12.1C23.9602 12.1 23.5136 11.9767 23.1202 11.73C22.7336 11.4833 22.4302 11.1567 22.2102 10.75C21.9902 10.3367 21.8802 9.89 21.8802 9.41C21.8802 8.92333 21.9902 8.47667 22.2102 8.07C22.4369 7.65667 22.7436 7.32667 23.1302 7.08C23.5236 6.82667 23.9669 6.7 24.4602 6.7C24.9602 6.7 25.4036 6.82667 25.7902 7.08C26.1836 7.32667 26.4902 7.65667 26.7102 8.07C26.9369 8.47667 27.0502 8.92333 27.0502 9.41C27.0502 9.89 26.9402 10.3367 26.7202 10.75C26.5002 11.1567 26.1936 11.4833 25.8002 11.73C25.4136 11.9767 24.9669 12.1 24.4602 12.1ZM22.5702 9.42C22.5702 9.80667 22.6536 10.16 22.8202 10.48C22.9936 10.7933 23.2236 11.0433 23.5102 11.23C23.7969 11.41 24.1136 11.5 24.4602 11.5C24.8069 11.5 25.1236 11.4067 25.4102 11.22C25.6969 11.0333 25.9269 10.78 26.1002 10.46C26.2736 10.14 26.3602 9.78667 26.3602 9.4C26.3602 9.01333 26.2736 8.66 26.1002 8.34C25.9269 8.02 25.6969 7.76667 25.4102 7.58C25.1236 7.39333 24.8069 7.3 24.4602 7.3C24.1202 7.3 23.8069 7.39667 23.5202 7.59C23.2336 7.77667 23.0036 8.03 22.8302 8.35C22.6569 8.67 22.5702 9.02667 22.5702 9.42ZM27.6075 13.21V11.39H27.6975C27.8975 11.39 28.0775 11.3033 28.2375 11.13C28.3975 10.9567 28.5275 10.6433 28.6275 10.19C28.7342 9.73 28.7975 9.08 28.8175 8.24L28.8675 6.79H32.2575V11.39H32.9575V13.21H32.3475V12H28.2075V13.21H27.6075ZM28.7275 11.39H31.5775V7.4H29.4775L29.4475 8.3C29.4142 9.23333 29.3375 9.94 29.2175 10.42C29.0975 10.8933 28.9342 11.2167 28.7275 11.39ZM33.9783 12V6.79H34.6583V9.03H37.6383V6.79H38.3183V12H37.6383V9.64H34.6583V12H33.9783ZM42.0384 12.1C41.5384 12.1 41.0917 11.9767 40.6984 11.73C40.3117 11.4833 40.0084 11.1567 39.7884 10.75C39.5684 10.3367 39.4584 9.89 39.4584 9.41C39.4584 8.92333 39.5684 8.47667 39.7884 8.07C40.015 7.65667 40.3217 7.32667 40.7084 7.08C41.1017 6.82667 41.545 6.7 42.0384 6.7C42.5384 6.7 42.9817 6.82667 43.3684 7.08C43.7617 7.32667 44.0684 7.65667 44.2884 8.07C44.515 8.47667 44.6284 8.92333 44.6284 9.41C44.6284 9.89 44.5184 10.3367 44.2984 10.75C44.0784 11.1567 43.7717 11.4833 43.3784 11.73C42.9917 11.9767 42.545 12.1 42.0384 12.1ZM40.1484 9.42C40.1484 9.80667 40.2317 10.16 40.3984 10.48C40.5717 10.7933 40.8017 11.0433 41.0884 11.23C41.375 11.41 41.6917 11.5 42.0384 11.5C42.385 11.5 42.7017 11.4067 42.9884 11.22C43.275 11.0333 43.505 10.78 43.6784 10.46C43.8517 10.14 43.9384 9.78667 43.9384 9.4C43.9384 9.01333 43.8517 8.66 43.6784 8.34C43.505 8.02 43.275 7.76667 42.9884 7.58C42.7017 7.39333 42.385 7.3 42.0384 7.3C41.6984 7.3 41.385 7.39667 41.0984 7.59C40.8117 7.77667 40.5817 8.03 40.4084 8.35C40.235 8.67 40.1484 9.02667 40.1484 9.42Z" fill="black"/>
</svg>
